<svg xmlns="http://www.w3.org/2000/svg" viewBox="0 0 64 64" role="img" aria-labelledby="title">
  <title>WhatsApp logo</title>
  <circle cx="32" cy="32" r="30" fill="#128c7e"/>
  <path fill="#fff" d="M47.2 37.5c-.7-.4-4.2-2.1-4.9-2.3-.7-.2-1.2-.4-1.7.4-.5.7-1.9 2.3-2.3 2.8-.4.5-.9.5-1.6.2-4.4-2.2-7.3-3.9-10.3-8.8-.8-1.4.8-1.3 2.2-4.2.2-.5.1-.9-.1-1.3-.2-.4-1.7-4.1-2.3-5.6-.6-1.5-1.2-1.3-1.7-1.3h-1.4c-.5 0-1.3.2-2 .9-.7.7-2.6 2.6-2.6 6.3 0 3.7 2.7 7.3 3.1 7.8.4.5 5.4 8.3 13.1 11.6 4.9 2.1 6.8 2.3 9.2 1.9 1.4-.2 4.2-1.7 4.8-3.4.6-1.7.6-3.1.4-3.4-.2-.3-.6-.5-1.3-.9z"/>
  <path fill="#fff" d="M32 8.8A23.1 23.1 0 0 0 12.4 44l-2.8 10.2L20 51.5A23.2 23.2 0 1 0 32 8.8zm0 42.5a19.2 19.2 0 0 1-9.8-2.7l-.7-.4-6.1 1.6 1.6-5.9-.4-.7A19.2 19.2 0 1 1 32 51.3z"/>
</svg>
